<svg width="574" height="584" viewBox="0 0 574 584" fill="none" xmlns="http://www.w3.org/2000/svg">
<path d="M482.764 199.652V574.821C482.764 579.494 478.599 583.282 473.453 583.282H112.769C107.623 583.282 103.458 579.494 103.458 574.821V200.231C103.458 188.13 104.749 176.311 107.202 164.89C107.383 164.021 107.58 163.136 107.787 162.267C107.916 161.719 108.046 161.172 108.183 160.616C108.39 159.732 108.621 158.839 108.845 157.962C114.533 136.045 124.533 115.725 137.966 97.8319C138.413 97.2294 138.879 96.6181 139.352 96.0234C140.015 95.1625 140.685 94.3016 141.365 93.4561C141.847 92.8537 142.329 92.2513 142.82 91.6566C155.066 76.7299 169.78 63.6893 186.389 53.0595C187.026 52.6524 187.663 52.253 188.309 51.8535C189.582 51.0625 190.864 50.2803 192.155 49.5137C192.818 49.1221 193.48 48.7382 194.151 48.3543C212.79 37.6303 233.564 29.8429 255.732 25.6791C257.867 24.8104 260.07 23.8785 262.247 22.931C262.961 22.6181 263.675 22.3119 264.389 21.9835C266.059 21.2402 267.703 20.4735 269.277 19.7224C269.992 19.3707 270.697 19.0246 271.377 18.6806C272.316 18.2036 273.219 17.7332 274.088 17.2561C276.334 16.0501 278.305 14.8608 279.871 13.7336C280.861 13.0135 281.687 12.3257 282.306 11.6677C285.705 8.0753 288.245 4.48951 289.992 1.64042C291.343 -0.567401 294.733 -0.536353 296.084 1.6715C296.222 1.90671 296.359 2.13302 296.514 2.35269C296.927 3.01062 297.357 3.66076 297.813 4.28649C306.763 16.748 321.849 23.2361 337.485 28.4961C345.213 31.0866 353.069 33.3888 360.402 35.9638C361.168 36.2301 361.924 36.5042 362.69 36.786C364.308 37.3651 365.909 37.9842 367.458 38.6099C367.484 38.6254 367.492 38.6332 367.519 38.641C368.224 38.9228 368.93 39.2123 369.635 39.5097C370.177 39.7371 370.72 39.9634 371.262 40.1987C372.889 40.8799 374.488 41.5766 376.089 42.2889C379.574 43.8466 383.025 45.4741 386.425 47.1727C388.189 48.057 389.953 48.9723 391.691 49.9042C401.914 55.3594 411.621 61.5824 420.536 68.7917C421.13 69.261 421.715 69.7392 422.301 70.2329C426.776 73.9585 431.053 77.9425 435.089 82.2162C446.947 94.7797 456.774 108.83 464.364 123.851C464.743 124.587 465.104 125.322 465.457 126.058C465.845 126.824 466.206 127.6 466.567 128.374C466.912 129.102 467.257 129.839 467.575 130.582C470.286 136.547 472.643 142.652 474.631 148.859C475.234 150.707 475.801 152.569 476.335 154.432C476.636 155.496 476.92 156.562 477.213 157.626C477.618 159.2 478.012 160.773 478.383 162.361C480.99 173.547 482.462 184.991 482.711 196.513C482.745 197.554 482.755 198.603 482.764 199.652Z" fill="white"/>
<path d="M473.718 204.04V561.314C473.718 565.764 469.751 569.372 464.85 569.372H121.371C116.471 569.372 112.504 565.764 112.504 561.314V204.591C112.504 193.067 113.733 181.811 116.069 170.935C116.24 170.108 116.43 169.266 116.626 168.438C116.749 167.917 116.872 167.395 117.004 166.866C117.2 166.024 117.421 165.173 117.634 164.339C123.051 143.467 132.573 124.116 145.366 107.076C145.792 106.502 146.235 105.921 146.685 105.354C147.316 104.534 147.957 103.714 148.604 102.909C149.062 102.335 149.521 101.762 149.988 101.195C161.65 86.9802 175.663 74.5609 191.479 64.4382C192.085 64.051 192.692 63.6716 193.307 63.291C194.521 62.5377 195.742 61.7921 196.971 61.0621C197.602 60.6893 198.233 60.3243 198.872 59.9593C216.623 49.7467 236.406 42.3299 257.516 38.3647C259.549 37.5371 261.646 36.6495 263.72 35.7475C264.4 35.4491 265.079 35.1584 265.759 34.8455C267.35 34.1377 268.915 33.4077 270.415 32.692C271.095 32.357 271.767 32.0286 272.415 31.7002C273.307 31.2453 274.168 30.7982 274.996 30.3433C277.135 29.195 279.01 28.0623 280.502 26.9894C281.444 26.3038 282.232 25.647 282.822 25.0212C286.059 21.5997 288.477 18.1869 290.141 15.4732C291.427 13.3708 294.655 13.3996 295.942 15.502C296.073 15.7262 296.205 15.9425 296.352 16.1511C296.745 16.7768 297.155 17.3948 297.589 17.9917C306.113 29.8585 320.478 36.0382 335.369 41.0474C342.728 43.5149 350.21 45.7071 357.192 48.159C357.922 48.412 358.642 48.6727 359.372 48.9412C360.912 49.4926 362.437 50.0829 363.912 50.6787C363.936 50.6931 363.944 50.7008 363.969 50.7086C364.641 50.9771 365.313 51.2522 365.986 51.5351C366.503 51.7515 367.017 51.9678 367.534 52.192C369.083 52.841 370.607 53.5044 372.131 54.1823C375.45 55.6657 378.737 57.2156 381.974 58.8332C383.653 59.6753 385.334 60.5473 386.99 61.4349C396.725 66.6305 405.969 72.5561 414.459 79.4215C415.025 79.8686 415.583 80.3235 416.14 80.7928C420.401 84.3408 424.473 88.1352 428.317 92.2047C439.61 104.168 448.969 117.549 456.197 131.854C456.557 132.555 456.901 133.255 457.237 133.956C457.606 134.686 457.951 135.424 458.295 136.162C458.623 136.855 458.95 137.556 459.253 138.264C461.834 143.944 464.08 149.758 465.973 155.669C466.547 157.429 467.088 159.203 467.596 160.977C467.883 161.991 468.152 163.004 468.431 164.018C468.817 165.516 469.194 167.015 469.546 168.528C472.029 179.18 473.431 190.077 473.669 201.05C473.702 202.041 473.71 203.041 473.718 204.04Z" fill="#181A67"/>
<path d="M311.59 70.6057C300.102 70.6057 290.789 61.8077 290.789 50.956C290.789 46.4838 292.374 42.3632 295.038 39.0604C285.779 41.0485 278.865 48.8669 278.865 58.2152C278.865 69.0669 288.178 77.8649 299.666 77.8649C306.42 77.8649 312.419 74.8228 316.219 70.112C314.73 70.4315 313.181 70.6057 311.59 70.6057Z" fill="white"/>
<path d="M573.303 566.24V578.434C573.303 581.001 571.828 583.081 570.009 583.081H19.5976C17.7752 583.081 16.3003 581.001 16.3003 578.434V566.24C16.3003 563.676 17.7752 561.597 19.5976 561.597H570.009C571.828 561.597 573.303 563.676 573.303 566.24Z" fill="#181A67"/>
<path d="M81.963 561.597V583.081H77.2754V561.597H81.963Z" fill="#181A67"/>
<path d="M143.359 561.597V583.081H138.669V561.597H143.359Z" fill="#181A67"/>
<path d="M204.752 561.597V583.081H200.057V561.597H204.752Z" fill="#181A67"/>
<path d="M266.14 561.597V583.081H261.453V561.597H266.14Z" fill="#181A67"/>
<path d="M327.533 561.597V583.081H322.845V561.597H327.533Z" fill="#181A67"/>
<path d="M388.929 561.597V583.081H384.235V561.597H388.929Z" fill="#181A67"/>
<path d="M450.318 561.597V583.081H445.631V561.597H450.318Z" fill="#181A67"/>
<path d="M511.712 561.597V583.081H507.025V561.597H511.712Z" fill="#181A67"/>
<path d="M557.002 566.24V569.372H0V566.24C0 563.676 1.47489 561.597 3.29732 561.597H553.708C555.527 561.597 557.002 563.676 557.002 566.24Z" fill="white"/>
<path d="M155.512 284.71L154.917 282.906C154.878 282.789 155.007 282.68 155.121 282.735L156.872 283.572C157.214 283.735 157.614 283.749 157.976 283.612L159.519 283.027C159.645 282.979 159.76 283.11 159.693 283.225L158.869 284.618C158.677 284.945 158.632 285.332 158.748 285.684L159.343 287.488C159.382 287.605 159.252 287.713 159.139 287.659L157.388 286.822C157.046 286.658 156.645 286.644 156.284 286.781L154.742 287.366C154.616 287.414 154.499 287.284 154.566 287.17L155.39 285.775C155.583 285.448 155.628 285.062 155.512 284.71Z" fill="white"/>
<path d="M375.128 102.841L374.533 101.038C374.495 100.921 374.624 100.813 374.738 100.867L376.488 101.704C376.83 101.867 377.231 101.882 377.593 101.745L379.135 101.16C379.262 101.112 379.377 101.243 379.309 101.357L378.486 102.751C378.293 103.078 378.248 103.464 378.365 103.816L378.96 105.62C378.999 105.737 378.869 105.846 378.756 105.791L377.005 104.954C376.663 104.791 376.262 104.777 375.901 104.914L374.359 105.498C374.232 105.546 374.116 105.416 374.184 105.301L375.007 103.908C375.2 103.581 375.244 103.193 375.128 102.841Z" fill="white"/>
<path d="M378.463 246.452L377.867 244.648C377.829 244.531 377.958 244.423 378.072 244.477L379.823 245.314C380.165 245.478 380.565 245.492 380.927 245.355L382.47 244.769C382.596 244.721 382.711 244.853 382.644 244.967L381.82 246.361C381.628 246.687 381.583 247.074 381.699 247.426L382.294 249.23C382.333 249.347 382.203 249.455 382.09 249.401L380.339 248.564C379.997 248.4 379.596 248.387 379.235 248.523L377.693 249.108C377.567 249.156 377.45 249.026 377.518 248.911L378.341 247.517C378.534 247.191 378.579 246.804 378.463 246.452Z" fill="white"/>
<path d="M455.774 414.743L455.179 412.94C455.141 412.823 455.27 412.715 455.384 412.769L457.134 413.605C457.476 413.769 457.877 413.784 458.239 413.647L459.782 413.061C459.908 413.013 460.023 413.145 459.956 413.259L459.132 414.653C458.94 414.979 458.895 415.366 459.011 415.718L459.606 417.522C459.645 417.639 459.515 417.747 459.402 417.693L457.651 416.856C457.309 416.692 456.908 416.679 456.547 416.815L455.005 417.4C454.879 417.448 454.762 417.318 454.829 417.204L455.653 415.809C455.846 415.483 455.89 415.095 455.774 414.743Z" fill="white"/>
<path d="M135.455 457.614L134.861 455.811C134.822 455.694 134.951 455.586 135.065 455.64L136.815 456.476C137.157 456.64 137.558 456.654 137.92 456.518L139.463 455.932C139.589 455.884 139.704 456.015 139.637 456.13L138.814 457.524C138.621 457.85 138.576 458.237 138.692 458.589L139.287 460.393C139.326 460.51 139.197 460.618 139.083 460.564L137.332 459.727C136.99 459.563 136.59 459.549 136.228 459.686L134.686 460.271C134.56 460.319 134.443 460.189 134.51 460.075L135.334 458.68C135.527 458.354 135.572 457.966 135.455 457.614Z" fill="white"/>
<path d="M221.903 242.903L220.874 239.781C220.808 239.578 221.03 239.392 221.227 239.486L224.258 240.933C224.849 241.216 225.541 241.241 226.167 241.004L228.838 239.992C229.057 239.91 229.256 240.134 229.14 240.332L227.715 242.745C227.381 243.311 227.304 243.98 227.505 244.589L228.534 247.711C228.601 247.915 228.379 248.1 228.181 248.007L225.151 246.559C224.559 246.276 223.866 246.251 223.24 246.488L220.57 247.5C220.351 247.582 220.152 247.359 220.269 247.161L221.694 244.746C222.028 244.18 222.104 243.511 221.903 242.903Z" fill="white"/>
<path d="M435.661 272.558L434.632 269.436C434.565 269.233 434.787 269.047 434.985 269.14L438.015 270.588C438.606 270.87 439.299 270.896 439.925 270.659L442.596 269.647C442.815 269.565 443.014 269.788 442.897 269.986L441.472 272.399C441.139 272.965 441.061 273.635 441.263 274.244L442.292 277.366C442.358 277.569 442.136 277.755 441.939 277.661L438.908 276.214C438.317 275.93 437.623 275.906 436.997 276.143L434.328 277.155C434.109 277.237 433.91 277.013 434.026 276.815L435.451 274.401C435.785 273.835 435.861 273.166 435.661 272.558Z" fill="white"/>
<path d="M233.441 96.9601L232.412 93.838C232.346 93.6347 232.568 93.449 232.766 93.5426L235.796 94.9905C236.387 95.2727 237.079 95.2979 237.705 95.0611L240.376 94.0495C240.595 93.9668 240.794 94.1907 240.678 94.3887L239.253 96.8016C238.919 97.3676 238.842 98.0369 239.043 98.6461L240.072 101.768C240.139 101.971 239.917 102.157 239.719 102.064L236.689 100.616C236.098 100.333 235.404 100.308 234.778 100.545L232.109 101.557C231.889 101.639 231.691 101.416 231.807 101.218L233.232 98.803C233.566 98.2371 233.642 97.5685 233.441 96.9601Z" fill="white"/>
<path d="M452.772 492.057C452.772 492.057 466.192 467.618 482.956 457.95C499.721 448.283 494.418 473.602 452.772 492.057Z" fill="#489D33"/>
<path d="M420.549 510.597C420.549 510.597 418.884 473.355 425.397 467.849C431.909 462.343 437.807 498.779 437.807 498.779L437.128 499.243L439.709 497.909L437.807 498.779C437.807 498.779 443.007 447.688 456.003 447.351C469 447.013 460.642 472.268 458.565 479.109C456.487 485.95 450.888 492.797 450.888 492.797C459.016 491.588 491.558 487.371 500.502 495.835C510.041 504.861 457.24 494.704 449.888 493.255L449.833 493.28C454.077 494.349 473.878 499.791 473.848 508.287C473.819 516.634 436.971 507.842 427.912 505.555L420.549 510.597Z" fill="#489D33"/>
<path d="M394.093 561.013C394.269 560.964 394.406 560.817 394.425 560.629C394.456 560.322 397.892 529.64 423.835 508.356C449.831 487.027 504.249 478.958 504.795 478.879C505.047 478.843 505.22 478.617 505.182 478.373C505.145 478.129 504.912 477.96 504.66 477.997C504.111 478.076 449.434 486.185 423.241 507.675C397.006 529.199 393.542 560.23 393.51 560.54C393.486 560.786 393.67 561.004 393.922 561.029C393.982 561.035 394.039 561.028 394.093 561.013Z" fill="#54B162"/>
<path d="M403.332 561.978C403.291 561.98 403.251 561.975 403.209 561.965C402.988 561.911 402.855 561.693 402.911 561.479C402.96 561.294 408.022 542.846 429.806 530.315C451.571 517.794 488.461 523.208 488.832 523.265C489.057 523.299 489.211 523.503 489.176 523.722C489.141 523.94 488.929 524.089 488.705 524.055C488.338 523.999 451.734 518.629 430.226 531.002C408.732 543.366 403.757 561.495 403.71 561.677C403.664 561.851 403.508 561.969 403.332 561.978Z" fill="#54B162"/>
<path d="M201.313 530.124C201.313 530.124 169.368 522.353 158.962 507.938C148.555 493.522 156.568 478.97 175.175 477.22C193.782 475.47 205.702 511.542 201.313 530.124Z" fill="#54B162"/>
<path d="M187.67 548.598C187.67 548.598 177.003 534.978 156.575 536.616C136.146 538.254 132.006 548.544 148.505 553.575C165.004 558.605 187.67 548.598 187.67 548.598Z" fill="#54B162"/>
<path d="M209.638 562.45L208.982 561.931C208.81 561.794 191.574 548.247 176.079 546.156C160.753 544.089 156.657 546.797 156.617 546.824C156.433 546.951 156.176 546.914 156.043 546.737C155.91 546.56 155.946 546.312 156.128 546.18C156.295 546.06 160.415 543.235 176.193 545.365C190.145 547.247 205.423 558.234 208.814 560.784C208.685 557.473 207.623 544.431 199.087 524.709C192.959 510.551 184.271 501.894 173.964 499.673C173.766 499.631 173.61 499.597 173.505 499.568C173.285 499.51 173.158 499.291 173.218 499.077C173.279 498.864 173.504 498.738 173.724 498.798C173.82 498.823 173.96 498.854 174.141 498.893C184.721 501.172 193.61 509.992 199.846 524.4C209.824 547.453 209.658 561.49 209.655 561.629L209.638 562.45Z" fill="#368282"/>
<path d="M143.681 511.79C143.681 511.79 126.934 493.035 110.301 487.833C93.6681 482.631 103.503 503.724 143.681 511.79Z" fill="#489D33"/>
<path d="M175.643 521.755C175.643 521.755 169.445 488.896 162.623 485.345C155.802 481.794 158.137 514.769 158.137 514.769L158.825 515.043L156.296 514.376L158.137 514.769C158.137 514.769 143.095 471.139 131.671 473.358C120.247 475.578 132.739 496.026 135.959 501.6C139.179 507.175 145.479 512.074 145.479 512.074C138.129 512.59 108.832 515.203 102.756 524.329C96.2773 534.059 140.321 514.968 146.446 512.28L146.5 512.291C143.011 514.046 126.83 522.632 128.602 530.049C130.343 537.336 160.728 522.525 168.173 518.774L175.643 521.755Z" fill="#489D33"/>
<path d="M209.116 560.683C208.951 560.674 208.801 560.571 208.746 560.411C208.655 560.148 199.35 534.008 172.311 520.433C145.217 506.829 96.0154 510.307 95.5211 510.344C95.2947 510.361 95.0963 510.197 95.0785 509.977C95.0606 509.758 95.2314 509.564 95.4578 509.548C95.9532 509.511 145.389 506.015 172.69 519.722C200.034 533.45 209.436 559.891 209.528 560.157C209.6 560.366 209.484 560.593 209.268 560.663C209.218 560.679 209.166 560.685 209.116 560.683Z" fill="#489D33"/>
<path d="M407.218 279.748C397.297 274.551 340.25 264.157 340.25 264.157L333.711 254.962C333.711 254.962 327.398 261.359 319.28 264.957C311.163 268.555 305.751 264.157 305.751 264.157L305.075 284.437L304.398 264.157C304.398 264.157 298.987 268.555 290.869 264.957C282.751 261.359 276.438 254.962 276.438 254.962L269.899 264.157C269.899 264.157 212.853 274.551 202.931 279.748C193.009 284.945 174.521 328.922 181.286 336.118C188.05 343.314 216.46 363.304 215.107 372.899C214.069 380.265 216.22 423.683 217.275 452.139L215.307 452.321C215.307 452.321 212.172 503.228 209.289 522.818C206.405 542.408 209.289 561.597 209.289 561.597H216.911H295.83H314.32H393.238H403.333C403.333 561.597 407.041 512.824 403.333 500.43C399.626 488.036 400.449 435.265 400.449 435.265L393.515 435.904C394.592 409.441 395.897 378.961 395.042 372.899C393.69 363.304 422.101 343.314 428.865 336.118C435.629 328.922 417.14 284.945 407.218 279.748Z" fill="white"/>
<path d="M288.069 288.46C289.293 289.263 300.52 293.142 302.808 287.51C305.096 281.878 306.545 274.951 306.545 274.951C306.545 274.951 311.586 294.374 316.244 294.374C320.901 294.374 319.28 305.166 321.554 311.414C323.828 317.663 342.885 472.465 347.405 482.82C351.924 493.174 382.619 477.953 387.758 455.744C392.897 433.535 374.535 328.954 364.4 300.588C354.265 272.223 319.28 264.956 319.28 264.956H307.341C307.341 264.956 284.823 252.119 270.669 274.951C256.515 297.782 235.491 452.537 226.509 462.491C217.527 472.445 213.987 476.441 215.642 482.82C217.298 489.198 229.589 517.592 238.954 513.903C248.319 510.214 262.005 441.358 270.673 420.974C279.342 400.59 288.069 288.46 288.069 288.46Z" fill="#B9CCE0"/>
<path d="M307.34 561.597H302.808V264.956H307.34V561.597Z" fill="#B9CCE0"/>
<path d="M438.746 349.798C438.671 350.276 438.536 350.647 438.338 350.912C438.275 350.993 438.211 351.073 438.152 351.154C437.158 352.403 436.125 353.214 435.024 353.826C434.675 354.022 434.318 354.197 433.954 354.359C432.671 354.936 431.296 355.366 429.792 355.985C428.945 356.331 428.057 356.743 427.127 357.276C426.794 357.465 426.457 357.669 426.113 357.892C425.42 358.346 424.7 358.868 423.951 359.491C423.653 359.737 423.356 359.993 423.055 360.274C422.022 361.208 420.94 362.334 419.799 363.702C419.518 364.041 419.222 364.382 418.917 364.728C418.659 365.02 418.39 365.312 418.113 365.608C417.444 366.327 416.731 367.054 415.982 367.784C415.704 368.052 415.427 368.321 415.143 368.594C413.788 369.877 412.335 371.169 410.838 372.441C410.537 372.696 410.235 372.952 409.93 373.206C408.434 374.458 406.9 375.686 405.388 376.865C405.075 377.107 404.762 377.349 404.454 377.583C403.298 378.475 402.156 379.331 401.059 380.142C400.727 380.392 400.398 380.635 400.074 380.873C398.407 382.088 396.858 383.187 395.515 384.129C395.179 384.363 394.853 384.586 394.545 384.796C392.981 385.88 391.78 386.684 391.123 387.117C390.75 387.364 390.553 387.495 390.553 387.495C390.553 387.495 390.553 387.51 390.557 387.537C390.56 387.594 390.573 387.713 390.589 387.886C390.6 388.048 390.621 388.255 390.64 388.509C391.111 394.354 393.392 424.308 392.612 447.208C392.225 458.73 391.052 468.46 388.49 472.445C380.249 485.238 372.834 504.83 366.241 499.63C364.926 498.593 363.108 494.969 360.997 489.635C360.44 488.225 359.86 486.695 359.262 485.057C359.246 485.007 359.223 484.958 359.207 484.908C356.518 477.51 353.488 468.009 350.458 457.883C349.524 454.762 348.594 451.58 347.666 448.38C345.956 442.45 344.278 436.466 342.701 430.714C341.6 426.705 340.554 422.812 339.58 419.119C337.516 411.325 335.758 404.415 334.518 399.285C328.34 373.697 332.459 338.116 330.812 320.926C329.164 303.736 321.335 271.354 321.335 271.354L334.32 261.62C334.32 261.62 335.754 257.756 338.638 258.16C341.525 258.556 405.38 275.347 409.911 278.148C412.794 279.928 425.34 306.437 432.92 327.051C433.51 328.65 434.072 330.213 434.595 331.728C437.462 340.044 439.225 346.858 438.746 349.798Z" fill="black" fill-opacity="0.85"/>
<path d="M359.21 484.91C359.824 486.601 360.422 488.179 360.999 489.635C365.835 486.112 375.559 478.385 380.354 470.01C387.176 458.092 387.255 396.309 387.255 395.686C387.255 394.603 387.052 393.458 386.839 392.251C386.171 388.465 385.339 383.751 390.369 378.054C393.689 374.292 395.894 370.775 398.226 367.053C401.316 362.116 404.512 357.007 410.923 350.118C417.254 343.318 427.181 336.425 434.596 331.728C434.072 330.212 433.512 328.649 432.923 327.05C425.195 331.875 414.305 339.328 407.256 346.904C400.529 354.128 397.06 359.673 393.999 364.562C391.679 368.268 389.678 371.466 386.612 374.937C380.074 382.341 381.211 388.794 381.965 393.063C382.15 394.107 382.311 395.01 382.311 395.686C382.311 408.574 381.244 458.572 376.029 467.683C372.074 474.595 364.006 481.304 359.21 484.91Z" fill="black" fill-opacity="0.85"/>
<path d="M392.613 447.207C392.223 458.726 391.051 468.459 388.488 472.443C380.25 485.238 372.834 504.828 366.24 499.629C364.925 498.592 363.107 494.967 360.995 489.635C360.437 488.223 359.859 486.693 359.262 485.057C371.972 481.229 381.807 476.424 380.675 470.046C378.966 460.443 361.717 459.344 350.459 457.882C349.522 454.762 348.593 451.582 347.664 448.382C345.955 442.452 344.278 436.467 342.701 430.711C343.61 427.027 344.417 424.471 344.417 424.471C344.417 424.471 364.605 416.077 364.195 402.481C363.782 388.89 346.478 320.927 359.251 335.718C372.024 350.51 368.476 379.358 387.758 386.523C388.749 386.89 389.693 387.345 390.587 387.886C390.907 391.742 393.428 423.311 392.613 447.207Z" fill="#368282"/>
<path d="M168.208 353.127C168.284 353.604 168.419 353.976 168.616 354.241C168.679 354.322 168.743 354.402 168.803 354.483C169.796 355.732 170.83 356.543 171.931 357.154C172.28 357.351 172.636 357.526 173.001 357.688C174.284 358.265 175.658 358.694 177.163 359.313C178.01 359.659 178.897 360.071 179.828 360.605C180.161 360.793 180.498 360.997 180.842 361.22C181.535 361.674 182.255 362.197 183.004 362.819C183.301 363.065 183.598 363.322 183.899 363.602C184.933 364.537 186.014 365.663 187.155 367.031C187.437 367.369 187.733 367.711 188.038 368.057C188.295 368.349 188.565 368.64 188.842 368.937C189.511 369.656 190.224 370.382 190.973 371.112C191.251 371.381 191.527 371.649 191.812 371.922C193.167 373.206 194.62 374.497 196.117 375.77C196.417 376.024 196.719 376.28 197.024 376.534C198.521 377.787 200.054 379.014 201.567 380.193C201.88 380.435 202.192 380.677 202.501 380.911C203.657 381.803 204.799 382.66 205.895 383.471C206.228 383.72 206.556 383.963 206.881 384.202C208.548 385.417 210.097 386.515 211.439 387.457C211.775 387.691 212.101 387.914 212.41 388.125C213.974 389.209 215.175 390.012 215.832 390.446C216.205 390.692 216.401 390.823 216.401 390.823C216.401 390.823 216.401 390.839 216.398 390.865C216.394 390.923 216.382 391.042 216.366 391.215C216.354 391.377 216.334 391.583 216.314 391.837C215.843 397.683 213.562 427.636 214.342 450.537C214.73 462.058 215.903 471.788 218.465 475.773C226.706 488.567 234.12 508.159 240.714 502.959C242.029 501.921 243.847 498.298 245.957 492.963C246.515 491.553 247.095 490.023 247.693 488.386C247.709 488.336 247.732 488.286 247.748 488.236C250.437 480.838 253.466 471.338 256.496 461.212C257.43 458.091 258.361 454.909 259.288 451.708C260.999 445.778 262.677 439.795 264.254 434.042C265.355 430.034 266.401 426.141 267.375 422.447C269.439 414.653 271.197 407.743 272.436 402.613C278.615 377.026 274.495 341.444 276.143 324.254C277.79 307.064 285.62 274.682 285.62 274.682L272.634 264.948C272.634 264.948 271.2 261.085 268.317 261.489C265.43 261.885 201.575 278.675 197.044 281.477C194.16 283.256 181.615 309.766 174.035 330.38C173.445 331.978 172.882 333.542 172.36 335.056C169.492 343.372 167.729 350.187 168.208 353.127Z" fill="black" fill-opacity="0.85"/>
<path d="M247.744 488.238C247.13 489.929 246.532 491.508 245.956 492.963C241.12 489.441 231.396 481.713 226.601 473.338C219.779 461.42 219.7 399.638 219.7 399.014C219.7 397.931 219.902 396.786 220.116 395.579C220.784 391.794 221.616 387.08 216.586 381.383C213.265 377.62 211.061 374.103 208.729 370.381C205.638 365.444 202.443 360.335 196.032 353.446C189.701 346.646 179.774 339.753 172.359 335.056C172.882 333.54 173.443 331.977 174.031 330.378C181.76 335.203 192.65 342.657 199.699 350.232C206.426 357.456 209.895 363.001 212.956 367.89C215.275 371.596 217.277 374.795 220.343 378.265C226.881 385.67 225.744 392.122 224.99 396.391C224.805 397.435 224.644 398.338 224.644 399.014C224.644 411.903 225.71 461.901 230.926 471.012C234.881 477.923 242.949 484.632 247.744 488.238Z" fill="black" fill-opacity="0.85"/>
<path d="M214.342 450.535C214.732 462.055 215.904 471.787 218.467 475.771C226.705 488.567 234.12 508.156 240.715 502.957C242.03 501.92 243.848 498.295 245.959 492.963C246.517 491.551 247.096 490.021 247.693 488.386C234.983 484.557 225.148 479.752 226.28 473.375C227.989 463.771 245.238 462.673 256.496 461.211C257.433 458.091 258.362 454.91 259.291 451.71C261 445.78 262.677 439.796 264.254 434.04C263.345 430.355 262.538 427.799 262.538 427.799C262.538 427.799 242.35 419.405 242.759 405.81C243.173 392.219 260.477 324.255 247.704 339.047C234.931 353.838 238.479 382.686 219.197 389.851C218.206 390.218 217.262 390.673 216.368 391.215C216.048 395.07 213.527 426.64 214.342 450.535Z" fill="#368282"/>
<path d="M330.825 253.362C327.117 245.766 327.529 226.177 327.529 226.177L304.869 230.175L282.21 226.177C282.21 226.177 282.622 245.766 278.914 253.362C275.206 260.957 304.869 274.951 304.869 274.951C304.869 274.951 334.533 260.957 330.825 253.362Z" fill="#F69D85"/>
<path d="M282.3 238.22C282.3 238.22 300.078 258.086 305.692 258.13C311.306 258.175 326.704 238.22 326.704 238.22H282.3Z" fill="black" fill-opacity="0.85"/>
<path d="M270.674 264.156C270.674 264.156 274.794 252.961 277.678 253.761C280.561 254.561 305.692 262.956 305.692 264.156C305.692 265.355 297.453 281.347 295.392 281.746C293.332 282.146 270.262 265.355 270.674 264.156Z" fill="white"/>
<path d="M337.205 265.06C337.205 265.06 333.497 254.44 330.902 255.199C328.306 255.958 305.688 263.923 305.688 265.06C305.688 266.197 313.102 281.368 314.957 281.747C316.811 282.127 337.575 266.197 337.205 265.06Z" fill="white"/>
<path d="M305.581 263.62L297.007 282.758L314.299 282.342L305.581 263.62Z" fill="#B9CCE0"/>
<path d="M258.641 177.803C258.641 177.803 250.132 175.004 246.485 183C242.838 190.996 248.511 202.99 254.589 205.788C260.667 208.586 265.125 208.187 265.125 208.187L258.641 177.803Z" fill="#F69D85"/>
<path d="M351.095 177.803C351.095 177.803 359.604 175.004 363.251 183C366.898 190.996 361.225 202.99 355.147 205.788C349.069 208.586 344.612 208.187 344.612 208.187L351.095 177.803Z" fill="#F69D85"/>
<path d="M351.529 173.005C350.787 184.998 347.439 209.786 342.977 218.181C338.511 226.576 319.539 237.771 312.103 238.97C304.662 240.169 304.662 240.169 304.662 240.169C304.662 240.169 304.662 240.169 297.221 238.97C289.785 237.771 270.813 226.576 266.347 218.181C261.885 209.786 258.537 184.998 257.795 173.005C257.05 161.011 260.769 150.617 260.769 150.617C260.835 150.425 261.053 150.257 261.4 150.11C266.858 147.791 304.662 150.617 304.662 150.617C304.662 150.617 339.47 148.014 347.109 149.853C347.936 150.053 348.447 150.305 348.555 150.617C348.555 150.617 352.274 161.011 351.529 173.005Z" fill="#F69D85"/>
<path d="M348.555 150.618C348.447 150.306 347.936 150.054 347.109 149.855C347.862 152.649 349.873 162.479 346.857 179.802C343.244 200.591 330.793 223.778 319.95 226.977C309.107 230.175 307.5 226.177 305.893 225.777C304.287 225.378 304.287 225.378 304.287 225.378C304.287 225.378 304.287 225.378 302.68 225.777C301.074 226.177 299.467 230.175 288.623 226.977C277.78 223.778 265.329 200.591 261.717 179.802C258.787 162.967 260.605 153.212 261.4 150.11C261.053 150.257 260.835 150.426 260.769 150.618C260.769 150.618 257.05 161.012 257.795 173.006C258.537 184.999 261.885 209.787 266.347 218.182C266.685 218.818 267.116 219.47 267.609 220.132C270.72 226.005 276.895 235.849 285.504 240.969C298.276 248.564 304.868 249.364 304.868 249.364C304.868 249.364 311.459 248.564 324.231 240.969C333.066 235.715 339.141 225.488 342.046 219.681C342.4 219.174 342.716 218.672 342.977 218.182C347.439 209.787 350.787 184.999 351.529 173.006C352.274 161.012 348.555 150.618 348.555 150.618Z" fill="#454545"/>
<path d="M303.633 90.2499C249.662 90.2499 256.255 148.219 256.255 148.219C256.255 150.218 260.786 150.618 268.614 151.017C281.448 151.673 294.286 152.662 307.147 152.423C317.645 152.228 328.165 151.553 338.651 151.017C346.478 150.618 351.01 150.218 351.01 148.219C351.01 148.219 357.603 90.2499 303.633 90.2499Z" fill="white"/>
<path d="M301.985 203.989C301.785 203.989 301.59 203.895 301.471 203.722C301.281 203.447 301.359 203.074 301.642 202.89C302.973 202.029 306.562 199.466 307.178 197.97C307.438 197.34 306.835 196.862 305.289 195.845C304.2 195.127 302.843 194.233 301.894 192.944C299.612 189.844 302.974 184.876 303.118 184.666C303.307 184.391 303.69 184.317 303.975 184.501C304.258 184.684 304.336 185.057 304.147 185.332C304.116 185.376 301.113 189.819 302.9 192.246C303.721 193.361 304.922 194.153 305.983 194.852C307.457 195.823 308.981 196.826 308.326 198.415C307.456 200.526 302.85 203.55 302.327 203.889C302.222 203.956 302.103 203.989 301.985 203.989Z" fill="black" fill-opacity="0.85"/>
<path d="M352.154 176.981L340.03 174.785C339.321 164.959 332.232 157.215 323.613 157.215C315.594 157.215 308.898 163.92 307.434 172.769C306.639 172.396 305.32 171.871 303.735 171.614C302.024 171.337 300.686 172.244 299.871 173.037C298.499 164.057 291.751 157.215 283.651 157.215C275.11 157.215 268.069 164.82 267.252 174.519L257.54 176.991L257.853 178.15L267.186 175.775C267.18 175.985 267.172 176.193 267.172 176.404C267.172 186.985 274.564 195.593 283.651 195.593C292.738 195.593 300.131 186.985 300.131 176.404C300.131 175.825 300.105 175.252 300.061 174.685C300.247 174.411 301.63 172.491 303.531 172.798C305.254 173.077 306.656 173.718 307.265 174.032C307.183 174.81 307.135 175.601 307.135 176.404C307.135 186.985 314.526 195.593 323.613 195.593C332.7 195.593 340.093 186.985 340.093 176.404C340.093 176.274 340.087 176.146 340.085 176.016L351.928 178.16L352.154 176.981ZM283.651 194.394C275.245 194.394 268.408 186.324 268.408 176.404C268.408 166.484 275.245 158.414 283.651 158.414C292.057 158.414 298.895 166.484 298.895 176.404C298.895 186.324 292.057 194.394 283.651 194.394ZM323.613 194.394C315.208 194.394 308.371 186.324 308.371 176.404C308.371 166.484 315.208 158.414 323.613 158.414C332.019 158.414 338.857 166.484 338.857 176.404C338.857 186.324 332.019 194.394 323.613 194.394Z" fill="#454545"/>
<path d="M321.454 211.817C320.547 214.335 318.71 216.554 316.243 218.237C313.198 220.316 309.194 221.579 304.811 221.579C300.296 221.579 296.188 220.24 293.11 218.049C290.778 216.39 289.04 214.243 288.166 211.817C287.923 211.141 288.149 210.457 288.66 209.993C289.06 209.621 289.637 209.386 290.296 209.386H319.325C319.877 209.386 320.371 209.555 320.754 209.822C321.405 210.286 321.729 211.054 321.454 211.817Z" fill="black" fill-opacity="0.85"/>
<path d="M320.754 209.822C320.479 210.402 320.24 210.862 320.112 210.986C319.7 211.385 290.861 211.385 289.625 210.986C289.217 210.854 288.9 210.462 288.661 209.994C289.062 209.622 289.637 209.386 290.296 209.386H319.325C319.877 209.386 320.371 209.555 320.754 209.822Z" fill="white"/>
<path d="M316.244 218.237C313.199 220.316 309.194 221.579 304.811 221.579C300.296 221.579 296.188 220.24 293.11 218.049C295.961 216.897 299.99 216.183 304.456 216.183C309.156 216.183 313.376 216.978 316.244 218.237Z" fill="#F69D85"/>
<path d="M285.917 178.202C285.917 181.514 284.257 184.199 282.209 184.199C280.162 184.199 278.501 181.514 278.501 178.202C278.501 174.891 280.162 172.206 282.209 172.206C284.257 172.206 285.917 174.891 285.917 178.202Z" fill="#454545"/>
<path d="M326.704 178.202C326.704 181.514 325.044 184.199 322.996 184.199C320.948 184.199 319.288 181.514 319.288 178.202C319.288 174.891 320.948 172.206 322.996 172.206C325.044 172.206 326.704 174.891 326.704 178.202Z" fill="#454545"/>
<path d="M276.673 168.789C276.588 168 278.276 167.205 278.883 166.986C279.729 166.68 280.633 166.594 281.524 166.728C282.303 166.845 282.638 165.689 281.853 165.571C280.446 165.36 279.072 165.522 277.792 166.148C276.841 166.612 275.309 167.608 275.437 168.789C275.52 169.549 276.757 169.556 276.673 168.789Z" fill="#454545"/>
<path d="M321.344 167.421C323.418 166.205 326.669 168.023 328.166 169.387C328.746 169.915 329.622 169.068 329.04 168.539C327.113 166.785 323.305 164.87 320.721 166.386C320.041 166.784 320.66 167.821 321.344 167.421Z" fill="#454545"/>
<path d="M252.499 358.233L261.67 345.249L259.016 334.466C258.491 332.336 261.102 330.815 262.793 332.265L269.123 337.695L275.1 314.888C275.584 313.04 277.484 311.891 279.403 312.301C285.092 313.518 296.094 317.016 299.354 326.218C302.091 333.947 302.478 337.915 300.184 345.316C298.662 350.224 289.02 360.481 284.096 362.336L261.43 370.871L252.499 358.233Z" fill="#F69D85"/>
<path d="M208.495 377.054L214.695 386.081C215.309 388.675 211.066 395.196 205.196 394.741L255.502 348.873L277.833 372.671L262.703 398.211C261.225 399.989 255.371 406.175 253.817 407.89C249.129 413.063 239.735 423.558 232.407 427.043L209.906 439.309C209.906 439.309 182.885 459.277 170.204 433.644C157.523 408.011 170.494 352.518 170.494 352.518C170.494 352.518 187.207 358.168 193.664 369.848C204.239 373.948 208.495 377.054 208.495 377.054Z" fill="white"/>
<path d="M355.311 358.233L346.14 345.249L348.794 334.466C349.318 332.336 346.708 330.815 345.017 332.265L338.687 337.695L332.71 314.888C332.226 313.04 330.326 311.891 328.407 312.301C322.718 313.518 311.716 317.016 308.456 326.218C305.719 333.947 305.332 337.915 307.626 345.316C309.148 350.224 318.79 360.481 323.714 362.336L346.38 370.871L355.311 358.233Z" fill="#F69D85"/>
<path d="M399.315 377.054L393.115 386.081C392.501 388.675 396.744 395.196 402.614 394.741L352.308 348.873L329.977 372.671L345.107 398.211C346.585 399.989 352.439 406.175 353.993 407.89C358.681 413.063 368.075 423.558 375.403 427.043L397.904 439.309C397.904 439.309 424.925 459.277 437.606 433.644C450.287 408.011 437.316 352.518 437.316 352.518C437.316 352.518 420.603 358.168 414.146 369.848C403.572 373.948 399.315 377.054 399.315 377.054Z" fill="white"/>
</svg>
